 Full Credits To Feel Free :)
 ######## ######## ######## ##          ######## ########  ######## ######## 
 ##       ##       ##       ##          ##       ##     ## ##       ##       
 ##       ##       ##       ##          ##       ##     ## ##       ##       
 ######   ######   ######   ##          ######   ########  ######   ######   
 ##       ##       ##       ##          ##       ##   ##   ##       ##       
 ##       ##       ##       ##          ##       ##    ##  ##       ##       
 ##       ######## ######## ########    ##       ##     ## ######## ######## 

 
 Genre:Comedy
 Language:English
 IMDb:  http://www.imdb.com/title/tt1341341/
 Source:1080p.BluRay.x264-FASTHD Thanks!

 Format : MPEG-4
 Format profile : Base Media
 Codec ID : isom
 File size : 2.05 GiB
 Duration : 1h 29mn
 Overall bit rate : 3 277 Kbps

 Video
 ID : 1
 Format : AVC
 Format/Info : Advanced Video Codec
 Format profile : High@L4.1
 Format settings, CABAC : Yes
 Format settings, ReFrames : 3 frames
 Codec ID : avc1
 Codec ID/Info : Advanced Video Coding
 Duration : 1h 29mn
 Bit rate mode : Variable
 Bit rate : 2 830 Kbps
 Nominal bit rate : 3 000 Kbps
 Maximum bit rate : 25.4 Mbps
 Width : 1 280 pixels
 Height : 544 pixels
 Display aspect ratio : 2.35:1
 Frame rate mode : Constant
 Frame rate : 23.976 fps
 Color space : YUV
 Chroma subsampling : 4:2:0
 Bit depth : 8 bits
 Scan type : Progressive
 Bits/(Pixel*Frame) : 0.169
 Stream size : 1.77 GiB (86%)
 Writing library : x264

 Audio
 ID : 2
 Format : AAC
 Format/Info : Advanced Audio Codec
 Format version : Version 4
 Format profile : LC
 Format settings, SBR : No
 Codec ID : 40
 Duration : 1h 29mn
 Bit rate mode : Variable
 Bit rate : 444 Kbps
 Maximum bit rate : 528 Kbps
 Channel(s) : 6 channels
 Channel positions : Front: L C R, Side: L R, LFE
 Sampling rate : 48.0 KHz
 Stream size : 285 MiB (14%)


 Plot:
 A young guy crashes the wedding of the thirty-something woman he wants back.






 ==================================  http://thepiratebay.org/user/hiest
 ==================================






 Screen Shots:
  http://leetleech.org/images/54518219282919773955.png
  http://leetleech.org/images/53951782165039956668.png
  http://leetleech.org/images/44812694313090112388.png
  http://leetleech.org/images/49400509177574739619.png
  http://leetleech.org/images/02901434674351628923.png

 
 Full Credits To Feel Free :)
 ######## ######## ######## ##          ######## ########  ######## ######## 
 ##       ##       ##       ##          ##       ##     ## ##       ##       
 ##       ##       ##       ##          ##       ##     ## ##       ##       
 ######   ######   ######   ##          ######   ########  ######   ######   
 ##       ##       ##       ##          ##       ##   ##   ##       ##       
 ##       ##       ##       ##          ##       ##    ##  ##       ##       
 ##       ######## ######## ########    ##       ##     ## ######## ######## 